# AST/ASF file generated using VICON BodyLanguage
# -----------------------------------------------
:version 1.10
:name VICON
:units
  mass 1.0
  length 0.45
  angle deg
:documentation
   .ast/.asf automatically generated from VICON data using
   VICON BodyBuilder and BodyLanguage model FoxedUp or BRILLIANT.MOD
:root
   order TX TY TZ RX RY RZ
   axis XYZ
   position 0 0 0  
   orientation 0 0 0 
:bonedata
  begin
     id 1 
     name lhipjoint
     direction 0.722297 -0.617336 0.311742 
     length 2.6635 
     axis 0 0 0  XYZ
  end
  begin
     id 2 
     name lfemur
     direction 0.34202 -0.939693 0  
     length 7.39349  
     axis 0 0 20  XYZ
    dof rx ry rz
    limits (-160.0 20.0)
           (-70.0 70.0)
           (-60.0 70.0)
  end
  begin
     id 3 
     name ltibia
     direction 0.34202 -0.939693 0   
     length 7.36294   
     axis 0 0 20   XYZ
    dof rx
    limits (-10.0 170.0)
  end
  begin
     id 4 
     name lfoot
     direction 0.104879 -0.288152 0.951824   
     length 2.16981   
     axis -90 7.62852e-016 20   XYZ
    dof rx rz
    limits (-45.0 90.0)
           (-70.0 20.0)
  end
  begin
     id 5 
     name ltoes
     direction 1.53586e-011 -4.21895e-011 1   
     length 1.08218   
     axis -90 7.62852e-016 20   XYZ
    dof rx
    limits (-90.0 20.0)
  end
  begin
     id 6 
     name rhipjoint
     direction -0.75102 -0.589393 0.297631   
     length 2.78977  
     axis 0 0 0  XYZ 
  end
  begin
     id 7 
     name rfemur
     direction -0.34202 -0.939693 0   
     length 7.46076   
     axis 0 0 -20   XYZ
    dof rx ry rz
    limits (-160.0 20.0)
           (-70.0 70.0)
           (-70.0 60.0)
  end
  begin
     id 8 
     name rtibia
     direction -0.34202 -0.939693 0   
     length 7.31726   
     axis 0 0 -20   XYZ
    dof rx
    limits (-10.0 170.0)
 end
 begin
     id 9 
     name rfoot
     direction -0.107991 -0.296704 0.948844   
     length 2.09388  
     axis -90 -7.62852e-016 -20   XYZ
    dof rx rz
    limits (-45.0 90.0)
           (-20.0 70.0)
  end
  begin
     id 10 
     name rtoes
     direction -1.53559e-011 -4.21911e-011 1   
     length 1.04433   
     axis -90 -7.62852e-016 -20   XYZ
    dof rx
    limits (-90.0 20.0)
  end
  begin
     id 11 
     name lowerback
     direction 0.0165164 0.98272 0.184358   
     length 1.71896   
     axis 0 0 0   XYZ
    dof rx ry rz
    limits (-20.0 45.0)
           (-30.0 30.0)
           (-30.0 30.0)
  end
  begin
     id 12 
     name upperback
     direction -0.00887249 0.992297 0.123566   
     length 1.71504   
     axis 0 0 0   XYZ
    dof rx ry rz
    limits (-20.0 45.0)
           (-30.0 30.0)
           (-30.0 30.0)
  end
  begin
     id 13 
     name thorax
     direction -0.0157026 0.998908 0.0440032   
     length 1.77022   
     axis 0 0 0   XYZ
    dof rx ry rz
    limits (-20.0 45.0)
           (-30.0 30.0)
           (-30.0 30.0)
  end
  begin
     id 14 
     name lowerneck
     direction -0.0238856 0.998137 0.0561411   
     length 1.89341   
     axis 0 0 0   XYZ
    dof rx ry rz
    limits (-20.0 45.0)
           (-30.0 30.0)
           (-30.0 30.0)
  end
  begin
     id 15 
     name upperneck
     direction 0.0276574 0.952253 -0.304056   
     length 1.86999   
     axis 0 0 0   XYZ
    dof rx ry rz
    limits (-20.0 45.0)
           (-30.0 30.0)
           (-30.0 30.0)
  end
  begin
     id 16
     name head
     direction 0.00800083 0.994258 -0.106712  
     length 1.91492  
     axis 0 0 0   XYZ
    dof rx ry rz
    limits (-20.0 45.0)
           (-30.0 30.0)
           (-30.0 30.0)
  end
  begin
     id 17 
     name lclavicle
     direction 0.97203 0.225407 0.06595  
     length 3.34889  
     axis 0 0 0   XYZ
    dof ry rz
    limits (-20.0 10.0)
           (0.0 20.0)
  end
  begin
     id 18 
     name lhumerus
     direction 1 -4.48973e-011 2.20267e-027   
     length 4.85645   
     axis 180 -30 -90   XYZ
    dof rx ry rz
    limits (-60.0 90.0)
           (-90.0 90.0)
           (-90.0 90.0)
  end
  begin
     id 19
     name lradius
     direction 1 -4.4897e-011 4.60472e-027   
     length 2.79874   
     axis 180 -30 -90   XYZ
    dof rx
    limits (-10.0 170.0)
  end
  begin
     id 20
     name lwrist
     direction 1 -4.48952e-011 1.14928e-026   
     length 1.39937   
     axis -6.29373e-015 90 90   XYZ
    dof ry
    limits (-180.0 0.0)
 end
  begin
     id 21 
     name lhand
     direction 1 -4.48967e-011 2.29886e-026   
     length 0.573398   
     axis -1.46689e-014 90 90   XYZ
    dof rx rz
    limits (-90.0 90.0)
           (-45.0 45.0)
  end
  begin
     id 22 
     name lfingers
     direction 1 -4.48955e-011 4.59726e-026   
     length 0.462289   
     axis -2.93383e-014 90 90   XYZ
    dof rx
    limits (0.0 90.0)
  end
  begin
     id 23
     name lthumb
     direction 0.707107 -6.34866e-011 0.707107   
     length 0.663757   
     axis -90 45 5.69224e-014   XYZ
    dof rx rz
    limits (-45.0 45.0)
           (-45.0 45.0)
  end
  begin
     id 24 
     name rclavicle
     direction -0.981571 0.157346 0.108443   
     length 3.35257  
     axis 0 0 0   XYZ 
    dof ry rz
    limits (-10.0 20.0)
           (-20.0 0.0)
  end
  begin
     id 25 
     name rhumerus
     direction -1 -4.48967e-011 8.58308e-029  
     length 4.67018   
     axis 180 30 90   XYZ
    dof rx ry rz
    limits (-90.0 60.0)
           (-90.0 90.0)
           (-90.0 90.0)
  end
  begin
     id 26 
     name rradius
     direction -1 -4.48958e-011 4.52548e-027   
     length 2.65534   
     axis 180 30 90   XYZ
    dof rx
    limits (-10.0 170.0)
  end
  begin
     id 27 
     name rwrist
     direction -1 -4.48977e-011 1.14952e-026   
     length 1.32767   
     axis -6.29373e-015 -90 -90   XYZ
    dof ry
    limits (-180.0 0.0)
  end
  begin
     id 28
     name rhand
     direction -1 -4.48924e-011 2.29804e-026   
     length 0.594069   
     axis -1.46689e-014 -90 -90   XYZ
    dof rx rz
    limits (-90.0 90.0)
           (-45.0 45.0)
  end
  begin
     id 29
     name rfingers
     direction -1 -4.48998e-011 4.59888e-026   
     length 0.478954   
     axis -2.93383e-014 -90 -90   XYZ
    dof rx
    limits (0.0 90.0)
  end
  begin
     id 30
     name rthumb
     direction -0.707107 -6.34933e-011 0.707107   
     length 0.687685   
     axis -90 -45 -5.69224e-014   XYZ
    dof rx rz
    limits (-45.0 45.0)
           (-45.0 45.0)
  end
:hierarchy
  begin
    root lhipjoint rhipjoint lowerback
    lhipjoint lfemur
    lfemur ltibia
    ltibia lfoot
    lfoot ltoes
    rhipjoint rfemur
    rfemur rtibia
    rtibia rfoot
    rfoot rtoes
    lowerback upperback
    upperback thorax
    thorax lowerneck lclavicle rclavicle
    lowerneck upperneck
    upperneck head
    lclavicle lhumerus
    lhumerus lradius
    lradius lwrist
    lwrist lhand lthumb
    lhand lfingers
    rclavicle rhumerus
    rhumerus rradius
    rradius rwrist
    rwrist rhand rthumb
    rhand rfingers
  end

#!OML:ASF E:\pregnant2\Project 1\Capture day 1\Session 1\pregnant2.ASF
:FULLY-SPECIFIED
:DEGREES
980
root -5.14234 1.36165 18.0047 -76.873 -3.64334 2.3316
lowerback -2.57351 0.362496 1.94894
upperback -10.5162 0.402669 -1.52759
thorax -9.65298 -0.0669626 -2.7348
lowerneck -12.0315 -0.801383 1.43705
upperneck 29.8118 -2.92326 4.00037
head 11.7878 -0.672528 0.841779
rclavicle -7.15625e-015 1.59525e-014
rhumerus -35.8691 39.4905 -41.9119
rradius 62.9254
rwrist -23.7001
rhand 17.8437 -16.4242
rfingers 7.12502
rthumb 222.521 139.163
lclavicle -7.15625e-015 1.59525e-014
lhumerus -37.2733 -28.9732 33.5305
lradius 51.3322
lwrist 44.5744
lhand 13.5849 29.3578
lfingers 7.12502
lthumb 218.518 -124.986
rfemur -61.648 -5.58656 21.901
rtibia 106.807
rfoot 30.7567 -10.1018
rtoes 25.4777
lfemur -60.2225 6.14127 -19.153
ltibia 106.496
lfoot 28.0032 -11.7384
ltoes -15.5062
981
root -5.13921 1.36119 18.0038 -76.8961 -3.66206 2.28761
lowerback -2.60228 0.388092 1.96784
upperback -10.5281 0.435708 -1.53445
thorax -9.64731 -0.0531268 -2.75435
lowerneck -12.1412 -0.834273 1.38579
upperneck 29.6647 -2.95691 4.00914
head 11.7535 -0.694896 0.847216
rclavicle 1.27222e-014 -1.03368e-014
rhumerus -35.296 38.4972 -40.9922
rradius 61.8799
rwrist -24.8868
rhand 17.1527 -16.9011
rfingers 7.12502
rthumb 221.874 138.467
lclavicle 1.27222e-014 -1.03368e-014
lhumerus -36.5383 -27.7149 32.4704
lradius 50.4991
lwrist 45.1156
lhand 12.958 29.4283
lfingers 7.12502
lthumb 217.926 -124.752
rfemur -61.6004 -5.62102 21.9052
rtibia 106.785
rfoot 30.7951 -9.91484
rtoes 25.122
lfemur -60.2047 6.11094 -19.1448
ltibia 106.491
lfoot 28.0184 -11.7355
ltoes -15.493
982
root -5.13621 1.36084 18.003 -76.913 -3.67728 2.24575
lowerback -2.63962 0.412397 1.98316
upperback -10.5882 0.46713 -1.53412
thorax -9.69131 -0.0408214 -2.76477
lowerneck -12.0496 -0.866453 1.3019
upperneck 29.4932 -2.97831 4.03381
head 11.6686 -0.71679 0.866444
rclavicle 3.77691e-015 -8.94531e-015
rhumerus -34.8248 37.5608 -40.1326
rradius 60.8361
rwrist -25.8928
rhand 16.4245 -17.3134
rfingers 7.12502
rthumb 221.191 137.831
lclavicle 3.77691e-015 -8.94531e-015
lhumerus -35.9181 -26.4983 31.473
lradius 49.6479
lwrist 45.4279
lhand 12.4088 29.3821
lfingers 7.12502
lthumb 217.407 -124.66
rfemur -61.5574 -5.6484 21.9013
rtibia 106.76
rfoot 30.8077 -9.86916
rtoes 25.041
lfemur -60.1937 6.07635 -19.1396
ltibia 106.488
lfoot 28.0349 -11.7186
ltoes -15.4566
983
root -5.13341 1.36086 18.0021 -76.9098 -3.68773 2.20525
lowerback -2.70325 0.434814 1.99375
upperback -10.688 0.49557 -1.53091
thorax -9.76504 -0.0304256 -2.76958
lowerneck -11.8143 -0.896606 1.20573
upperneck 29.3132 -2.99033 4.0623
head 11.5515 -0.737538 0.891008
rclavicle 1.98785e-016 1.99779e-014
rhumerus -34.4198 36.6611 -39.3132
rradius 59.7887
rwrist -26.6907
rhand 15.7049 -17.6851
rfingers 7.12502
rthumb 220.515 137.246
lclavicle 1.98785e-016 1.99779e-014
lhumerus -35.3841 -25.3124 30.5132
lradius 48.7859
lwrist 45.5607
lhand 11.8995 29.2446
lfingers 7.12502
lthumb 216.926 -124.672
rfemur -61.5353 -5.66978 21.8915
rtibia 106.735
rfoot 30.8044 -9.90354
rtoes 25.1205
lfemur -60.2044 6.03673 -19.1408
ltibia 106.484
lfoot 28.0528 -11.7039
ltoes -15.4269
984
root -5.13081 1.3614 18.0011 -76.8909 -3.69543 2.16737
lowerback -2.79135 0.453716 2.00502
upperback -10.7846 0.518852 -1.53068
thorax -9.82109 -0.0224213 -2.77731
lowerneck -11.622 -0.9241 1.1062
upperneck 29.1667 -3.00537 4.10352
head 11.4571 -0.756948 0.920642
rclavicle 0 3.97569e-015
rhumerus -33.9958 35.7347 -38.5005
rradius 58.7274
rwrist -27.2751
rhand 14.9777 -18.0258
rfingers 7.12502
rthumb 219.831 136.697
lclavicle 0 3.97569e-015
lhumerus -34.8678 -24.0879 29.5501
lradius 47.9133
lwrist 45.5735
lhand 11.401 29.0503
lfingers 7.12502
lthumb 216.454 -124.746
rfemur -61.5295 -5.68637 21.8814
rtibia 106.71
rfoot 30.7965 -9.96075
rtoes 25.2391
lfemur -60.2298 5.99499 -19.1457
ltibia 106.479
lfoot 28.0723 -11.6873
ltoes -15.3988
985
root -5.12854 1.36243 17.9999 -76.8582 -3.69797 2.13082
lowerback -2.90131 0.468452 2.01429
upperback -10.8681 0.535869 -1.53677
thorax -9.84982 -0.0169981 -2.7898
lowerneck -11.5173 -0.949239 1.00465
upperneck 29.0603 -3.02809 4.16554
head 11.3971 -0.775187 0.957323
rclavicle 9.93923e-016 -5.96354e-015
rhumerus -33.5436 34.7677 -37.6948
rradius 57.6498
rwrist -27.6666
rhand 14.2056 -18.3243
rfingers 7.12502
rthumb 219.103 136.185
lclavicle 9.93923e-016 -5.96354e-015
lhumerus -34.3568 -22.8212 28.5754
lradius 47.0431
lwrist 45.52
lhand 10.8793 28.8598
lfingers 7.12502
lthumb 215.96 -124.814
rfemur -61.5413 -5.70433 21.8743
rtibia 106.691
rfoot 30.7966 -9.98943
rtoes 25.2798
lfemur -60.2671 5.94835 -19.1553
ltibia 106.471
lfoot 28.0947 -11.6695
ltoes -15.3687
986
root -5.12647 1.36384 17.9984 -76.8229 -3.69677 2.09846
lowerback -3.01841 0.48139 2.02624
upperback -10.9332 0.55004 -1.54994
thorax -9.85352 -0.0129302 -2.81078
lowerneck -11.5216 -0.97548 0.877179
upperneck 28.9997 -3.06739 4.27774
head 11.3791 -0.794877 1.01479
rclavicle 3.57812e-015 -3.62782e-015
rhumerus -33.0658 33.7555 -36.8954
rradius 56.5633
rwrist -27.8815
rhand 13.4491 -18.6473
rfingers 7.12502
rthumb 218.39 135.661
lclavicle 3.57812e-015 -3.62782e-015
lhumerus -33.8427 -21.5157 27.5843
lradius 46.1889
lwrist 45.4713
lhand 10.304 28.7559
lfingers 7.12502
lthumb 215.415 -124.786
rfemur -61.557 -5.72176 21.8689
rtibia 106.674
rfoot 30.8045 -9.98065
rtoes 25.2353
lfemur -60.3024 5.90081 -19.1682
ltibia 106.459
lfoot 28.1165 -11.6526
ltoes -15.3422
987
root -5.12468 1.36548 17.9969 -76.7883 -3.69064 2.07105
lowerback -3.13654 0.494399 2.03983
upperback -10.9799 0.563741 -1.5718
thorax -9.83572 -0.00913719 -2.84159
lowerneck -11.6171 -1.00303 0.773639
upperneck 28.9606 -3.11266 4.37199
head 11.3877 -0.815084 1.06051
rclavicle 8.94531e-015 -2.06239e-014
rhumerus -32.5771 32.7015 -36.1102
rradius 55.4733
rwrist -27.9512
rhand 12.6746 -19.0027
rfingers 7.12502
rthumb 217.658 135.106
lclavicle 8.94531e-015 -2.06239e-014
lhumerus -33.3291 -20.2016 26.588
lradius 45.3539
lwrist 45.4462
lhand 9.63049 28.7386
lfingers 7.12502
lthumb 214.776 -124.653
rfemur -61.5718 -5.7365 21.8602
rtibia 106.66
rfoot 30.8158 -9.95309
rtoes 25.1582
lfemur -60.3319 5.8532 -19.1853
ltibia 106.443
lfoot 28.1368 -11.6378
ltoes -15.3286
988
root -5.12312 1.36702 17.9954 -76.7684 -3.6786 2.04851
lowerback -3.23664 0.506577 2.05046
upperback -11.0198 0.576267 -1.59782
thorax -9.82101 -0.00586559 -2.87526
lowerneck -11.7342 -1.03087 0.683188
upperneck 28.9192 -3.15822 4.45461
head 11.3995 -0.835124 1.09951
rclavicle -5.56597e-015 1.06847e-014
rhumerus -32.1044 31.6363 -35.3449
rradius 54.3945
rwrist -27.915
rhand 11.8701 -19.4181
rfingers 7.12502
rthumb 216.898 134.491
lclavicle -5.56597e-015 1.06847e-014
lhumerus -32.8383 -18.8883 25.5926
lradius 44.5414
lwrist 45.4464
lhand 8.89682 28.8411
lfingers 7.12502
lthumb 214.079 -124.393
rfemur -61.5704 -5.74952 21.8427
rtibia 106.646
rfoot 30.8272 -9.92258
rtoes 25.089
lfemur -60.3415 5.8048 -19.206
ltibia 106.422
lfoot 28.1575 -11.6223
ltoes -15.3199
989
root -5.12177 1.36828 17.994 -76.7653 -3.66016 2.03168
lowerback -3.31437 0.519618 2.05763
upperback -11.0562 0.589837 -1.62846
thorax -9.81553 -0.00218956 -2.91222
lowerneck -11.8402 -1.0586 0.633914
upperneck 28.848 -3.19632 4.48769
head 11.3957 -0.854288 1.11375
rclavicle 1.55052e-014 -1.76173e-014
rhumerus -31.6603 30.5646 -34.6019
rradius 53.3317
rwrist -27.8055
rhand 11.0041 -19.8893
rfingers 7.12502
rthumb 216.078 133.813
lclavicle 1.55052e-014 -1.76173e-014
lhumerus -32.3746 -17.6011 24.6096
lradius 43.7365
lwrist 45.4424
lhand 8.08844 28.9673
lfingers 7.12502
lthumb 213.311 -124.099
rfemur -61.5523 -5.76056 21.8153
rtibia 106.634
rfoot 30.8359 -9.90259
rtoes 25.0527
lfemur -60.3295 5.75759 -19.2315
ltibia 106.399
lfoot 28.1751 -11.6083
ltoes -15.3185
990
root -5.1206 1.36903 17.9927 -76.7852 -3.63929 2.02145
lowerback -3.3616 0.532783 2.06195
upperback -11.0932 0.604241 -1.65526
thorax -9.82871 0.00200986 -2.94397
lowerneck -11.9094 -1.08488 0.592985
upperneck 28.7396 -3.22298 4.4951
head 11.3692 -0.871892 1.11831
rclavicle 1.07344e-014 -1.92076e-014
rhumerus -31.2447 29.5016 -33.8697
rradius 52.2935
rwrist -27.6685
rhand 10.0216 -20.3943
rfingers 7.12502
rthumb 215.147 133.084
lclavicle 1.07344e-014 -1.92076e-014
lhumerus -31.9491 -16.3221 23.6411
lradius 42.9318
lwrist 45.4001
lhand 7.25845 29.1022
lfingers 7.12502
lthumb 212.522 -123.798
rfemur -61.5133 -5.76688 21.7839
rtibia 106.625
rfoot 30.8414 -9.85338
rtoes 24.9518
lfemur -60.292 5.71486 -19.2571
ltibia 106.375
lfoot 28.1908 -11.5943
ltoes -15.3228
